HIERARCHY
ROOT root
{
	OFFSET	0	13.1	24.9
	CHANNELS 6  Xposition Yposition Zposition Xrotation Yrotation Zrotation
	JOINT spine_1
	{
		OFFSET	0	9.99999	0
		CHANNELS 3  Xrotation Yrotation Zrotation
		JOINT spine_2
		{
			OFFSET	0	112	-10
			CHANNELS 3  Xrotation Yrotation Zrotation
			JOINT spine_3
			{
				OFFSET	0	206.5	19.3
				CHANNELS 3  Xrotation Yrotation Zrotation
				JOINT spine_4
				{
					OFFSET	0	110.4	14.6
					CHANNELS 3  Xrotation Yrotation Zrotation
					JOINT neck_1
					{
						OFFSET	0	71.8	-50.3
						CHANNELS 3  Xrotation Yrotation Zrotation
						JOINT neck_2
						{
							OFFSET	0	86.2	-25.8
							CHANNELS 3  Xrotation Yrotation Zrotation
							JOINT head_ee
							{
								OFFSET	0	179.8	-8.7
								CHANNELS 3  Xrotation Yrotation Zrotation
								End Site
								{
									OFFSET	1	0	0
								}
							}
						}
					}
					JOINT left_clavicle
					{
						OFFSET	-43.2	22.4	-70.8
						CHANNELS 3  Xrotation Yrotation Zrotation
						JOINT left_shoulder
						{
							OFFSET	-93.9	-5.79999	48.7
							CHANNELS 3  Xrotation Yrotation Zrotation
							JOINT left_elbow
							{
								OFFSET	-291.4	-30.8	15.2
								CHANNELS 3  Xrotation Yrotation Zrotation
								JOINT left_lowarm_twist
								{
									OFFSET	-110.7	-3.89999	13.6
									CHANNELS 3  Xrotation Yrotation Zrotation
									JOINT left_hand
									{
										OFFSET	-110.7	-3.89999	13.6
										CHANNELS 3  Xrotation Yrotation Zrotation
										JOINT left_ee
										{
											OFFSET	-80.8	-5.10001	12.1
											CHANNELS 3  Xrotation Yrotation Zrotation
											End Site
											{
												OFFSET	1	0	0
											}
										}
									}
								}
							}
						}
					}
					JOINT right_clavicle
					{
						OFFSET	43.2	22.4	-70.8
						CHANNELS 3  Xrotation Yrotation Zrotation
						JOINT right_shoulder
						{
							OFFSET	93.9	-5.79999	48.7
							CHANNELS 3  Xrotation Yrotation Zrotation
							JOINT right_elbow
							{
								OFFSET	291.4	-30.8	15.2
								CHANNELS 3  Xrotation Yrotation Zrotation
								JOINT right_lowarm_twist
								{
									OFFSET	110.7	-3.89999	13.6
									CHANNELS 3  Xrotation Yrotation Zrotation
									JOINT right_hand
									{
										OFFSET	110.7	-3.89999	13.6
										CHANNELS 3  Xrotation Yrotation Zrotation
										JOINT right_ee
										{
											OFFSET	80.8	-5.10001	12.1
											CHANNELS 3  Xrotation Yrotation Zrotation
											End Site
											{
												OFFSET	1	0	0
											}
										}
									}
								}
							}
						}
					}
				}
			}
		}
	}
	JOINT left_hip
	{
		OFFSET	-82.8	-127.5	0.300001
		CHANNELS 3  Xrotation Yrotation Zrotation
		JOINT left_knee
		{
			OFFSET	-28.2	-396.7	2.2
			CHANNELS 3  Xrotation Yrotation Zrotation
			JOINT left_ankle
			{
				OFFSET	-11.7	-411.3	35.4
				CHANNELS 3  Xrotation Yrotation Zrotation
				JOINT left_toes
				{
					OFFSET	0	-60	-88.6
					CHANNELS 3  Xrotation Yrotation Zrotation
					JOINT left_foot_ee
					{
						OFFSET	-22.5	-16.5	-42.2
						CHANNELS 3  Xrotation Yrotation Zrotation
						End Site
						{
							OFFSET	1	0	0
						}
					}
				}
			}
		}
	}
	JOINT right_hip
	{
		OFFSET	82.8	-127.5	0.300001
		CHANNELS 3  Xrotation Yrotation Zrotation
		JOINT right_knee
		{
			OFFSET	28.2	-396.7	2.2
			CHANNELS 3  Xrotation Yrotation Zrotation
			JOINT right_ankle
			{
				OFFSET	11.7	-411.3	35.4
				CHANNELS 3  Xrotation Yrotation Zrotation
				JOINT right_toes
				{
					OFFSET	0	-60	-88.6
					CHANNELS 3  Xrotation Yrotation Zrotation
					JOINT right_foot_ee
					{
						OFFSET	22.5	-16.5	-42.2
						CHANNELS 3  Xrotation Yrotation Zrotation
						End Site
						{
							OFFSET	1	0	0
						}
					}
				}
			}
		}
	}
}
MOTION
Frames: 9
Frame Time: 0.02
2993.01 694.715 -1472.63 -16.0607 59.6045 12.6098 1.54543 0.94309 2.27573 1.54795 0.796409 2.33109 1.58107 0.356529 2.43738 1.57353 0.736889 2.35057 -27.6486 16.4933 3.84716 -30.0071 30.1676 13.4983 -0.0 0.0 -0.0 6.53144 23.9212 11.7377 -37.388 7.11845 67.3981 0.709378 -19.3617 0.121014 -57.6651 -4.99389 5.02257 -0.95181 1.53238 -5.69307 -0.0 0.0 -0.0 13.5693 26.4575 -26.9412 6.58079 28.593 -62.8086 1.91424 43.4741 -0.763262 84.0708 4.31561 8.82239 1.59043 -23.0974 -18.7381 0.0 0.0 0.0 40.253 34.1389 -17.6248 0.398089 -0.0165973 -0.0588349 -15.7429 -14.4212 2.56813 -21.4136 0.0 0.0 -0.0 0.0 -0.0 -10.5301 19.3472 20.2957 -19.1035 -0.305228 -2.90214 -5.08862 1.52343 -0.764596 -40.1451 0.0 0.0 0.0 0.0 0.0 
2975.89 689.154 -1466.84 -15.1972 59.1468 12.215 1.4554 0.93688 2.13934 1.45759 0.798884 2.19459 1.48892 0.380216 2.30427 1.48228 0.739272 2.21537 -27.9727 15.862 4.5427 -30.095 28.7191 13.7711 -0.0 0.0 -0.0 6.6017 24.2629 11.8072 -36.0037 7.44227 66.6045 0.766662 -20.7958 0.140682 -57.6976 -4.99789 5.02375 -1.54012 1.8302 -9.50534 -0.0 0.0 -0.0 13.9311 26.8928 -27.7288 6.86519 28.4617 -62.4778 1.79597 41.6547 -0.683253 84.3562 4.3496 8.83602 1.35096 -24.5412 -17.6957 0.0 0.0 0.0 38.9881 34.6434 -17.0449 2.62397 -0.116915 -0.385623 -12.6193 -17.267 2.0997 -23.9461 0.0 0.0 -0.0 0.0 -0.0 -11.1145 19.9685 21.5813 -21.397 -0.27642 -3.25285 -7.18727 -3.02533 -1.07218 -40.2387 0.0 0.0 0.0 0.0 0.0 
2942.2 698.399 -1456.57 -11.6595 58.9397 8.87521 1.24251 0.958392 2.16961 1.24476 0.818428 2.22616 1.27749 0.384981 2.34033 1.27063 0.749668 2.25023 -27.9769 15.7117 5.7265 -29.9388 28.0101 14.7208 -0.0 0.0 -0.0 6.75154 24.6124 11.985 -32.9674 7.47573 65.2065 0.796684 -21.5368 0.151522 -58.3597 -5.07949 5.04719 -1.76176 2.21603 -10.8229 -0.0 0.0 -0.0 13.9631 27.6834 -27.6979 4.21291 27.4119 -61.9397 1.58672 38.1651 -0.548941 85.257 4.45732 8.87791 1.37233 -25.8489 -18.1956 0.0 0.0 0.0 35.6527 35.6409 -15.4403 0.903858 -0.0382734 -0.133419 -6.2747 -17.4914 1.03589 -25.6293 0.0 0.0 -0.0 0.0 -0.0 -10.4059 21.7332 20.0161 -24.6113 -0.212475 -3.74188 -9.89837 -8.2271 -1.47553 -40.1197 0.0 0.0 0.0 0.0 0.0 
2923.96 695.545 -1446.38 -11.1859 58.3142 8.11078 1.26158 0.975316 2.10226 1.26364 0.8396 2.16003 1.29619 0.418973 2.27923 1.28977 0.773591 2.18453 -27.8874 15.4994 4.89485 -29.852 27.9014 13.8021 -0.0 0.0 -0.0 6.93194 25.1281 12.1852 -31.1566 6.93652 63.8273 0.779634 -21.1169 0.145321 -58.5522 -5.10326 5.05383 -1.90631 2.71949 -11.5646 -0.0 0.0 -0.0 14.1408 27.877 -28.0854 2.88809 26.553 -61.4361 1.56045 37.7014 -0.532792 85.4265 4.47766 8.88561 1.51325 -26.5059 -19.2138 0.0 0.0 0.0 33.6417 36.454 -14.4832 -0.121212 0.0049724 0.0179366 -4.82236 -16.7264 0.788698 -24.5211 0.0 0.0 -0.0 0.0 -0.0 -10.4092 23.211 20.9472 -27.8968 -0.118858 -4.23735 -9.1255 -11.2563 -1.36019 -39.3253 0.0 0.0 0.0 0.0 0.0 
2902.51 699.517 -1439.44 -11.3692 57.6591 8.40867 1.29053 0.8959 2.0481 1.29254 0.763788 2.10093 1.32134 0.356515 2.2068 1.31523 0.700487 2.12287 -27.719 15.4573 5.53832 -29.5913 27.5841 14.2933 -0.0 0.0 -0.0 7.04689 24.7954 12.3785 -28.5131 6.06259 61.8762 0.807801 -21.8092 0.155628 -58.5089 -5.09792 5.05234 -1.79014 2.01447 -11.1088 -0.0 0.0 -0.0 14.1803 27.719 -28.1997 0.76334 25.6869 -60.4722 1.52293 37.029 -0.510021 85.3311 4.46621 8.88128 1.20675 -27.193 -17.5974 0.0 0.0 0.0 31.7149 37.2579 -13.8438 -0.384046 0.015623 0.0568651 -2.74412 -15.3334 0.441781 -23.6365 0.0 0.0 -0.0 0.0 -0.0 -10.2238 24.0683 22.4743 -32.3439 0.0528242 -4.89805 -7.94668 -13.8081 -1.186 -37.1189 0.0 0.0 0.0 0.0 0.0 
2880.42 715.218 -1432.55 -10.23 57.5195 7.05114 1.05173 0.789965 2.0679 1.05386 0.656809 2.11395 1.07901 0.239601 2.20059 1.07272 0.584057 2.13518 -27.0028 15.7687 6.62667 -28.7783 27.7441 15.2421 -0.0 0.0 -0.0 7.20849 24.8043 12.603 -26.3137 5.01863 60.4339 0.824266 -22.2109 0.161799 -58.8368 -5.13846 5.0635 -1.59902 1.00299 -10.2825 -0.0 0.0 -0.0 14.1535 27.493 -28.1682 -1.83939 24.9342 -60.4451 1.47659 36.1816 -0.482385 85.149 4.44438 8.87298 0.757705 -28.1989 -15.3097 0.0 0.0 0.0 27.5443 38.7044 -11.5234 -0.748912 0.0301119 0.110984 0.414126 -13.3677 -0.0651913 -22.3666 0.0 0.0 -0.0 0.0 -0.0 -7.45625 25.9331 21.4058 -36.5566 0.26236 -5.5102 -6.18454 -16.2564 -0.92484 -35.084 0.0 0.0 0.0 0.0 0.0 
2862.73 713.254 -1431.12 -10.1044 56.7214 7.23412 1.18407 0.765368 2.02408 1.18612 0.635048 2.06866 1.20982 0.231819 2.15145 1.20381 0.568617 2.08789 -24.5401 16.4699 7.16097 -26.1577 28.6882 15.3507 -0.0 0.0 -0.0 7.30049 24.5792 12.7563 -23.8813 3.84004 58.6083 0.841175 -22.621 0.168246 -58.836 -5.13835 5.06347 -1.50524 0.342622 -9.94898 -0.0 0.0 -0.0 14.1897 27.1925 -28.2935 -3.23041 24.5381 -60.4825 1.43956 35.4912 -0.460706 85.0253 4.42956 8.8673 0.16928 -28.377 -12.0656 0.0 0.0 0.0 26.0955 39.9578 -10.5607 -1.24621 0.0493038 0.18489 4.3131 -9.59971 -0.655559 -22.1587 0.0 0.0 -0.0 0.0 -0.0 -5.68189 28.12 20.6944 -39.6335 0.443616 -5.94692 -2.13501 -16.8835 -0.317351 -32.8688 0.0 0.0 0.0 0.0 0.0 
2844.88 713.47 -1428.03 -9.11906 55.977 6.53865 1.18742 0.667884 2.00524 1.1895 0.538959 2.04366 1.20942 0.142121 2.10872 1.20353 0.473299 2.05985 -23.7006 17.1625 8.26412 -25.2695 29.4646 16.4529 -0.0 0.0 -0.0 7.41957 24.2168 12.9646 -21.0224 2.96405 56.5208 0.846359 -22.7462 0.170246 -58.652 -5.1156 5.05724 -1.3952 -0.0572635 -9.38487 -0.0 0.0 -0.0 14.1888 26.7824 -28.3458 -5.19889 24.1641 -60.6428 1.46509 35.9685 -0.475614 85.1701 4.4469 8.87394 -0.558401 -28.8435 -8.23717 0.0 0.0 0.0 25.8295 41.0535 -10.6727 -1.69891 0.0662149 0.252306 5.87578 -7.35302 -0.878258 -22.173 0.0 0.0 -0.0 0.0 -0.0 -3.87227 29.9541 20.4101 -44.0132 0.741625 -6.55075 3.40879 -17.7732 0.501407 -30.8882 0.0 0.0 0.0 0.0 0.0 
2830.66 718.516 -1422.73 -8.46506 54.9684 6.06995 1.07288 0.718183 1.93953 1.07478 0.593335 1.98128 1.09607 0.20329 2.05817 1.09054 0.525723 2.00028 -23.6218 17.4985 10.221 -25.0301 29.262 18.3271 -0.0 0.0 -0.0 7.43575 22.7526 13.148 -19.4102 3.25843 55.4625 0.914561 -24.3724 0.197508 -58.3005 -5.07218 5.04513 -1.37837 0.226874 -9.14265 -0.0 0.0 -0.0 14.2011 26.1784 -28.4525 -7.93514 23.6887 -60.8957 1.471 36.0783 -0.479093 84.9704 4.42298 8.86477 -1.63529 -28.6998 -2.36086 0.0 0.0 0.0 25.6938 41.7429 -10.6875 -2.34728 0.089505 0.349085 6.84001 -4.14903 -1.00517 -22.3666 0.0 0.0 -0.0 0.0 -0.0 -1.18492 30.9688 19.5004 -50.3669 1.25428 -7.383 10.2044 -17.8068 1.47146 -29.1517 0.0 0.0 0.0 0.0 0.0 
